<svg width="38" height="54" viewBox="0 0 38 54" fill="none" xmlns="http://www.w3.org/2000/svg">
<path d="M17.9978 44.9681C18.0304 46.5077 17.551 48.0209 16.6212 49.3133C15.6914 50.6058 14.3537 51.6185 12.7798 52.2213C11.206 52.8241 9.46799 52.9895 7.78896 52.6963C6.10994 52.4031 4.5666 51.6646 3.35722 50.5757C2.14785 49.4869 1.32767 48.0974 1.00199 46.5856C0.67632 45.0739 0.860046 43.5091 1.52958 42.0921C2.19911 40.6751 3.32386 39.4707 4.75937 38.6336C6.19487 37.7964 7.87557 37.3648 9.58557 37.3942C10.6138 37.3757 11.6319 37.5794 12.5546 37.9882C13.8307 38.346 14.9723 39.014 15.8535 39.9188C17.2338 41.3071 17.9972 43.1048 17.9978 44.9681Z" fill="url(#paint0_linear_2004_67)" stroke="#2C001B" stroke-width="1.5" stroke-linecap="round" stroke-linejoin="round"/>
<path d="M9.58545 48.8293C11.954 48.8293 13.874 47.1006 13.874 44.9681C13.874 42.8356 11.954 41.1069 9.58545 41.1069C7.21694 41.1069 5.29688 42.8356 5.29688 44.9681C5.29688 47.1006 7.21694 48.8293 9.58545 48.8293Z" fill="white" stroke="#2C001B" stroke-width="1.5" stroke-linecap="round" stroke-linejoin="round"/>
<path d="M21.7913 25.662L25.5851 37.9882L22.2879 40.0673L18.989 32.6419L21.7913 25.662Z" fill="white" stroke="#2C001B" stroke-width="1.5" stroke-linecap="round" stroke-linejoin="round"/>
<path d="M28.7192 52.542C33.3651 52.542 37.1314 49.151 37.1314 44.9681C37.1314 40.7851 33.3651 37.3942 28.7192 37.3942C24.0733 37.3942 20.307 40.7851 20.307 44.9681C20.307 49.151 24.0733 52.542 28.7192 52.542Z" fill="url(#paint1_linear_2004_67)" stroke="#2C001B" stroke-width="1.5" stroke-linecap="round" stroke-linejoin="round"/>
<path d="M28.7192 48.8293C31.0877 48.8293 33.0078 47.1006 33.0078 44.9681C33.0078 42.8356 31.0877 41.1069 28.7192 41.1069C26.3507 41.1069 24.4306 42.8356 24.4306 44.9681C24.4306 47.1006 26.3507 48.8293 28.7192 48.8293Z" fill="white" stroke="#2C001B" stroke-width="1.5" stroke-linecap="round" stroke-linejoin="round"/>
<path d="M16.3483 25.662L9.42065 9.17766C9.12117 8.37851 9.01412 7.5311 9.10665 6.69181C9.19917 5.85252 9.48915 5.04059 9.95727 4.31003C10.4254 3.57948 11.0609 2.94705 11.8216 2.45482C12.5823 1.96259 13.4507 1.62185 14.369 1.45526L19.1524 16.9001" fill="white"/>
<path d="M16.3483 25.662L9.42065 9.17766C9.12117 8.37851 9.01412 7.5311 9.10665 6.69181C9.19917 5.85252 9.48915 5.04059 9.95727 4.31003C10.4254 3.57948 11.0609 2.94705 11.8216 2.45482C12.5823 1.96259 13.4507 1.62185 14.369 1.45526L19.1524 16.9001" stroke="#2C001B" stroke-width="1.5" stroke-linecap="round" stroke-linejoin="round"/>
<path d="M29.0491 7.54407C29.0186 8.0992 28.9077 8.64838 28.7192 9.17767L21.7915 25.662L19.1524 32.1964L15.8535 39.9188C14.9723 39.014 13.8307 38.346 12.5546 37.9882L16.3483 25.662L19.1524 16.9001L23.9358 1.45526C25.4167 1.81701 26.7223 2.61118 27.6478 3.71318C28.5732 4.81517 29.0661 6.16262 29.0491 7.54407Z" fill="url(#paint2_linear_2004_67)" stroke="#2C001B" stroke-width="1.5" stroke-linecap="round" stroke-linejoin="round"/>
<defs>
<linearGradient id="paint0_linear_2004_67" x1="9.4222" y1="37.3928" x2="9.4222" y2="52.8376" gradientUnits="userSpaceOnUse">
<stop stop-color="#FF84B7"/>
<stop offset="0.46875" stop-color="#EF5997"/>
<stop offset="1" stop-color="#E84287"/>
</linearGradient>
<linearGradient id="paint1_linear_2004_67" x1="28.7192" y1="37.3942" x2="28.7192" y2="52.542" gradientUnits="userSpaceOnUse">
<stop stop-color="#FF84B7"/>
<stop offset="0.46875" stop-color="#EF5997"/>
<stop offset="1" stop-color="#E84287"/>
</linearGradient>
<linearGradient id="paint2_linear_2004_67" x1="20.8021" y1="1.45526" x2="20.8021" y2="39.9188" gradientUnits="userSpaceOnUse">
<stop stop-color="#FF84B7"/>
<stop offset="0.46875" stop-color="#EF5997"/>
<stop offset="1" stop-color="#E84287"/>
</linearGradient>
</defs>
</svg>
