<svg width="36" height="44" viewBox="0 0 36 44" fill="none" xmlns="http://www.w3.org/2000/svg">
<path d="M28.54 18.8182C24.97 18.8182 22.08 21.687 22.08 25.2307V42.2745H34.83V25.2307C35 21.687 32.11 18.8182 28.54 18.8182Z" fill="url(#paint0_linear_2004_107)" stroke="#2C001B" stroke-width="1.5" stroke-miterlimit="10" stroke-linecap="round" stroke-linejoin="round"/>
<path d="M22.25 37.5495H35" stroke="#2C001B" stroke-width="1.5" stroke-miterlimit="10" stroke-linecap="round" stroke-linejoin="round"/>
<path d="M14.43 42.2745H1V24.8932C1 23.712 2.02001 22.6995 3.21001 22.6995H12.22C13.41 22.6995 14.43 23.712 14.43 24.8932V42.2745Z" fill="url(#paint1_linear_2004_107)" stroke="#2C001B" stroke-width="1.5" stroke-miterlimit="10" stroke-linecap="round" stroke-linejoin="round"/>
<path d="M1.34 27.4245H14.26" stroke="#2C001B" stroke-width="1.5" stroke-miterlimit="10" stroke-linecap="round" stroke-linejoin="round"/>
<path d="M13.07 12.237H2.53V22.6995H13.07V12.237Z" stroke="#2C001B" stroke-width="1.5" stroke-miterlimit="10" stroke-linecap="round" stroke-linejoin="round"/>
<path d="M11.37 12.237H4.06V5.14947L9.83999 1.60571C10.52 1.26821 11.37 1.77447 11.37 2.61822V12.237Z" fill="url(#paint2_linear_2004_107)" stroke="#2C001B" stroke-width="1.5" stroke-miterlimit="10" stroke-linecap="round" stroke-linejoin="round"/>
<defs>
<linearGradient id="paint0_linear_2004_107" x1="29.0499" y1="42.8437" x2="29.0499" y2="20.0625" gradientUnits="userSpaceOnUse">
<stop offset="0.159092" stop-color="white"/>
<stop offset="0.279695" stop-color="#EF5997"/>
<stop offset="1" stop-color="#E84287"/>
</linearGradient>
<linearGradient id="paint1_linear_2004_107" x1="7.71499" y1="22.6995" x2="7.71499" y2="42.2745" gradientUnits="userSpaceOnUse">
<stop stop-color="#FF84B7"/>
<stop offset="0.46875" stop-color="#EF5997"/>
<stop offset="1" stop-color="#E84287"/>
</linearGradient>
<linearGradient id="paint2_linear_2004_107" x1="7.71499" y1="1.5" x2="7.71499" y2="12.237" gradientUnits="userSpaceOnUse">
<stop stop-color="#FF84B7"/>
<stop offset="0.46875" stop-color="#EF5997"/>
<stop offset="1" stop-color="#E84287"/>
</linearGradient>
</defs>
</svg>
